<svg xmlns="http://www.w3.org/2000/svg" xmlns:xlink="http://www.w3.org/1999/xlink" viewBox="0 0 3840 2160"><defs><style>.a{fill:none;}.b{fill:#231f20;}.c{fill:url(#a);}</style><pattern id="a" width="750.02" height="500" patternUnits="userSpaceOnUse" viewBox="0 0 750.02 500"><rect class="a" width="750.02" height="500"/><path class="b" d="M639.36,420.64A31.32,31.32,0,1,0,608,389.37,31.32,31.32,0,0,0,639.36,420.64Z"/><path class="b" d="M119.56,400.83a11.51,11.51,0,1,0-11.51-11.49A11.51,11.51,0,0,0,119.56,400.83Z"/><path class="b" d="M639.36,131.06a11.51,11.51,0,1,0-11.52-11.5A11.51,11.51,0,0,0,639.36,131.06Z"/><path class="b" d="M264.35,381.06a11.51,11.51,0,1,0-11.52-11.5A11.51,11.51,0,0,0,264.35,381.06Z"/><path class="b" d="M494.57,392a22.44,22.44,0,1,0-22.44-22.44A22.44,22.44,0,0,0,494.57,392Z"/><path class="b" d="M264.35,170.64A31.32,31.32,0,1,0,233,139.37,31.32,31.32,0,0,0,264.35,170.64Z"/><path class="b" d="M494.57,150.83a11.51,11.51,0,1,0-11.51-11.49A11.5,11.5,0,0,0,494.57,150.83Z"/><path class="b" d="M119.56,142a22.44,22.44,0,1,0-22.44-22.44A22.44,22.44,0,0,0,119.56,142Z"/></pattern></defs><title>speaky-to-pattern-bg</title><rect class="c" width="3840" height="2160"/></svg>